<!DOCTYPE svg PUBLIC "-//W3C//DTD SVG 1.1//EN" "http://www.w3.org/Graphics/SVG/1.1/DTD/svg11.dtd">
<!-- Uploaded to: SVG Repo, www.svgrepo.com, Transformed by: SVG Repo Mixer Tools -->
<svg fill="#1E2A38" width="800px" height="800px" viewBox="0 0 100 100" enable-background="new 0 0 100 100" id="Layer_1" version="1.0" xml:space="preserve" xmlns="http://www.w3.org/2000/svg" xmlns:xlink="http://www.w3.org/1999/xlink" stroke="#1E2A38">
<g id="SVGRepo_bgCarrier" stroke-width="0"/>
<g id="SVGRepo_tracerCarrier" stroke-linecap="round" stroke-linejoin="round"/>
<g id="SVGRepo_iconCarrier">
<path d="M83.333,20h-6.666v-3.334C76.667,12.981,73.685,10,70,10H16.667C12.985,10,10,12.981,10,16.666V30 c0,3.682,2.981,6.666,6.667,6.666H70c3.682,0,6.667-2.981,6.667-6.666v-3.334h6.666v16.667h-30C45.97,43.333,40,49.297,40,56.666 v6.667l-3.333,3.333V90H50V66.666l-3.333-3.333v-6.667c0-3.685,2.984-6.666,6.666-6.666h30C87.015,50,90,47.018,90,43.333V26.666 C90,22.984,87.019,20,83.333,20z"/>
</g>
</svg>