<?xml version="1.0" ?><svg enable-background="new 0 0 52 52" id="Layer_1" version="1.1" viewBox="0 0 52 52" xml:space="preserve" xmlns="http://www.w3.org/2000/svg" xmlns:xlink="http://www.w3.org/1999/xlink"><g><g><rect height="7.0909424" width="9.9473877" x="5" y="31.9090576"/></g><g><polygon points="34.8421021,22.395752 27.1052856,22.395752 27.1052856,29.5454102 34.8421021,29.5454102 37.0526123,29.5454102     47,29.5454102 47,22.395752 37.0526123,22.395752   "/></g><g><rect fill="#3A92CC" height="7.0319824" width="9.9473877" x="5" y="13"/></g><g><polygon points="27.1052856,20.0319824 34.8421021,20.0319824 34.8421021,13 17.1578979,13 17.1578979,20.0319824     24.8947144,20.0319824   "/></g><g><polygon points="24.8947144,22.395752 16.0526123,22.395752 14.9473877,22.395752 5,22.395752 5,29.5454102     14.9473877,29.5454102 16.0526123,29.5454102 24.8947144,29.5454102   "/></g><g><rect fill="#3A92CC" height="7.0319824" width="9.9473877" x="37.0526123" y="13"/></g><g><polygon fill="#3A92CC" points="24.8947144,31.9090576 17.1578979,31.9090576 17.1578979,39 34.8421021,39 34.8421021,31.9090576     27.1052856,31.9090576   "/></g><g><rect height="7.0909424" width="9.9473877" x="37.0526123" y="31.9090576"/></g></g></svg>